<svg width="906" height="786" viewBox="0 0 906 786" fill="none" xmlns="http://www.w3.org/2000/svg">
<path d="M323.292 114.5C339.126 127.167 363.992 155 336.792 165C342.126 181 343.292 219.3 305.292 244.5L297.792 268.5M258.792 220.5C256.959 226.5 255.592 246 262.792 262M253.792 266.5C269.459 260.833 299.292 253.9 299.292 273.5V278.5C326.292 256 385.2 204.7 400 183.5" stroke="#223B41" stroke-width="5" stroke-linecap="round"/>
<path d="M308.792 204.5C308.292 207.5 309.592 213.7 318.792 214.5" stroke="#223B41" stroke-width="5" stroke-linecap="round"/>
<path d="M335.792 143C335.792 148.604 334.137 153.576 331.584 157.086C329.03 160.598 325.714 162.5 322.292 162.5C318.871 162.5 315.555 160.598 313.001 157.086C310.448 153.576 308.792 148.604 308.792 143C308.792 137.396 310.448 132.424 313.001 128.914C315.555 125.402 318.871 123.5 322.292 123.5C325.714 123.5 329.03 125.402 331.584 128.914C334.137 132.424 335.792 137.396 335.792 143Z" stroke="#223B41" stroke-width="5" stroke-linecap="round"/>
<path d="M277.292 158L308.292 148" stroke="#223B41" stroke-width="5" stroke-linecap="round"/>
<path d="M300.792 137.5C301.626 134.167 304.692 126.5 310.292 122.5" stroke="#223B41" stroke-width="5" stroke-linecap="round"/>
<circle cx="323.792" cy="142.5" r="3.5" fill="#223B41"/>
<path d="M254.045 266.266L138.018 402.407M138.018 402.407C136.336 407.412 134.667 419.085 148.792 433.5M138.018 402.407C146.594 401.239 168.891 401.806 189.473 413.418C215.201 427.933 242.443 453.46 310.041 475.983M310.041 475.983L287.34 492M310.041 475.983C308.192 456.129 306.712 412.317 315.591 395.9C324.469 379.483 334.76 353.69 338.796 342.845C357.63 328.497 404.443 278.177 433.5 204.5" stroke="#223B41" stroke-width="5" stroke-linecap="round"/>
<path d="M221.293 303.5C202.626 319 155.293 351.7 115.293 358.5C105.959 362.333 89.8928 373.1 100.293 385.5C110.693 397.9 117.626 413 119.793 419C121.459 424.5 127.293 431.1 137.293 413.5" stroke="#223B41" stroke-width="5" stroke-linecap="round"/>
<path d="M107.292 394C99.4591 398.5 81.1925 407.1 70.7925 405.5C60.3925 403.9 53.4592 408.167 51.2925 410.5C50.1258 412.333 49.3925 416.1 55.7925 416.5C62.1925 416.9 69.7925 416.667 72.7925 416.5M81.2925 410.5C77.7925 414.167 65.8925 422.5 46.2925 426.5C42.4591 427.167 37.2925 431 44.2925 435.5C50.2925 439 66.8925 435.8 75.2925 431C68.7925 434.167 57.0925 442.6 62.2925 451C63.9591 452.667 70.9925 452.8 85.7925 440M85.7925 440L96.7925 431M85.7925 440C82.6258 448.167 77.7925 468 90.7925 457C100.292 447.5 98.2925 439.4 102.292 437C106.292 434.6 115.292 425.333 119.292 421M96.7925 414.5C95.6258 418.833 94.6925 428.9 100.292 434.5" stroke="#223B41" stroke-width="5" stroke-linecap="round"/>
<path d="M164.792 405C158.459 423 128.792 460 102.292 506.5C84.6257 535.667 42.4924 600.8 15.2924 628C11.6257 633.167 8.19237 644.9 23.7924 650.5C35.7924 655.5 41.1924 667.1 42.7924 679.5C44.7924 695 70.2924 706.5 87.2924 695C100.842 685.834 139.804 619.808 169.239 582.5M189.292 561C183.61 565.363 176.733 573.001 169.239 582.5M169.239 582.5L135.792 757M135.792 757C139.257 762.333 150.796 772.4 169.239 770M135.792 757C152.792 752.5 199.492 744 228.292 744" stroke="#223B41" stroke-width="5" stroke-linecap="round"/>
<path d="M217.292 751C223.626 749.333 236.392 740.9 236.792 720.5C237.192 700.1 245.626 665 249.792 650L290.792 470" stroke="#223B41" stroke-width="5" stroke-linecap="round"/>
<circle cx="304.792" cy="174.5" r="1.5" fill="#223B41"/>
<circle cx="310.792" cy="182.5" r="1.5" fill="#223B41"/>
<circle cx="295.792" cy="185.5" r="1.5" fill="#223B41"/>
<path d="M148.793 162C173.193 116.4 209.626 110.667 224.793 113.5C256.293 65 299.793 49 326.293 63.5C347.493 75.1 330.126 104.333 318.793 117.5L307.793 101.5C300.193 116.3 278.459 110.833 267.793 107.5C276.959 126.833 291.593 176.8 260.793 222C229.993 267.2 191.293 268 171.793 255C153.793 242.167 124.393 207.6 148.793 162Z" fill="#223B41"/>
<path d="M10.5964 739.077C-13.2074 691.5 8.85851 659.84 20.7926 652C39.2926 658 39.7926 678 42.7926 687.5L35.8686 707.049C31.2354 715.456 33.9381 731.904 35.8686 739.077C43.8715 772.306 31.7926 775.5 25.865 766.601L10.5964 739.077Z" fill="#223B41"/>
<path d="M237.293 783.5C174.493 791.9 161.459 767.667 162.793 753.5C173.593 749.1 203.293 747.5 217.293 746.5C213.293 755.7 218.293 754.5 221.793 757C226.293 760 238.793 763.667 245.793 764C277.293 765.5 252.626 781.333 237.293 783.5Z" fill="#223B41"/>
<path d="M411.5 166.193C413.667 151.693 425.2 123.393 454 126.193C465.842 127.345 473.976 128.874 479.437 130.426C486.339 132.387 494.162 142.272 487 142.693V142.693M487 142.693C482 141.36 470.6 138.893 465 139.693M487 142.693C495.5 145.193 499.6 153.093 494 156.693C490.512 158.936 484.903 157.415 480 155.103M472.5 150.693C474.323 152.013 477.032 153.703 480 155.103M480 155.103C482.745 156.971 486.562 159.115 488.718 161.98C489.296 162.748 489.515 163.002 489.68 163.949V163.949C490.765 170.178 482.456 170.625 477.624 166.548L477.5 166.443M469.5 159.693L477.5 166.443M477.5 166.443C480 168.553 482 171.776 482 175.693C482 177.842 481.008 179.304 479.619 180.229C475.845 182.741 472.565 179.424 470.831 175.235V175.235C468.59 169.819 461.068 170.091 455.519 171.977C452.377 173.045 448.747 173.298 445 171.776M439.5 168.193C441.333 169.879 443.18 171.037 445 171.776M445 171.776C445 175.248 443.7 182.093 438.5 181.693" stroke="#223B41" stroke-width="5" stroke-linecap="round"/>
<path d="M400 183.5C405 177.307 408.8 164.393 418 169.193C427.2 173.993 433.167 177.86 435 179.193C437.167 180.36 439.1 184.3 437.5 191.5C435.9 198.7 434.5 202.5 433.5 204.5" stroke="#223B41" stroke-width="5" stroke-linecap="round"/>
<path d="M600 111.973C626.522 117.413 614.085 153.92 633.524 163.635C656.725 175.231 664.714 109.942 661.695 82.2303C660.83 70.0797 646.679 64.6753 644.77 82.2303C642.743 100.878 665.885 173.188 692.407 145.285L710.115 124.799C715.035 118.737 724.735 110.316 732.933 124.799C741.13 139.283 754.191 134.497 759.697 130.293L777 117.709" stroke="#223B41" stroke-width="7" stroke-linecap="round"/>
<path d="M785.717 56L750 39.6995L906 0L785.717 56Z" fill="#223B41"/>
<path d="M906 0L792 108L811.963 66.9443L906 0Z" fill="#223B41"/>
<path d="M853.223 103L811 67.1853L906 0L853.223 103Z" fill="#223B41"/>
<path d="M791.24 108L786 55.5652L906 0L811.415 67.0435L791.24 108Z" fill="#223B41" fill-opacity="0.8"/>
</svg>
